<?xml version="1.0" encoding="UTF-8" standalone="no"?>
<!-- Created with Inkscape (http://www.inkscape.org/) -->

<svg
   xmlns:dc="http://purl.org/dc/elements/1.1/"
   xmlns:cc="http://creativecommons.org/ns#"
   xmlns:rdf="http://www.w3.org/1999/02/22-rdf-syntax-ns#"
   xmlns:svg="http://www.w3.org/2000/svg"
   xmlns="http://www.w3.org/2000/svg"
   xmlns:sodipodi="http://sodipodi.sourceforge.net/DTD/sodipodi-0.dtd"
   xmlns:inkscape="http://www.inkscape.org/namespaces/inkscape"
   width="25cm"
   height="7.5cm"
   viewBox="0 0 250 74.999998"
   version="1.1"
   id="svg2585"
   inkscape:version="0.92.2 (5c3e80d, 2017-08-06)"
   sodipodi:docname="logo_rutter.svg"
   inkscape:export-filename="C:\data\local\research_lex\project_profondeur\profondeur\reports\2017-09-28_biochemistry_research\logo_rutter.png"
   inkscape:export-xdpi="600"
   inkscape:export-ydpi="600">
  <defs
     id="defs2579" />
  <sodipodi:namedview
     id="base"
     pagecolor="#ffffff"
     bordercolor="#666666"
     borderopacity="1.0"
     inkscape:pageopacity="0.0"
     inkscape:pageshadow="2"
     inkscape:zoom="0.86234568"
     inkscape:cx="396.85039"
     inkscape:cy="4.6385111"
     inkscape:document-units="cm"
     inkscape:current-layer="layer1"
     showgrid="false"
     units="cm"
     inkscape:window-width="1920"
     inkscape:window-height="1137"
     inkscape:window-x="1912"
     inkscape:window-y="-8"
     inkscape:window-maximized="1" />
  <metadata
     id="metadata2582">
    <rdf:RDF>
      <cc:Work
         rdf:about="">
        <dc:format>image/svg+xml</dc:format>
        <dc:type
           rdf:resource="http://purl.org/dc/dcmitype/StillImage" />
        <dc:title></dc:title>
      </cc:Work>
    </rdf:RDF>
  </metadata>
  <g
     inkscape:label="Layer 1"
     inkscape:groupmode="layer"
     id="layer1"
     transform="translate(0,-222.00002)">
    <g
       id="g3255"
       transform="translate(34.21211,181.32957)">
      <rect
         y="40.670448"
         x="-34.212112"
         height="75"
         width="250"
         id="rect3192"
         style="fill:#000000;fill-opacity:1;stroke:none;stroke-width:3.39594221;stroke-miterlimit:4;stroke-dasharray:none;stroke-opacity:1" />
      <g
         transform="translate(0,0.49937213)"
         id="g3239">
        <path
           style="fill:#c80032;fill-opacity:1;stroke:none;stroke-width:0.26458332px;stroke-linecap:butt;stroke-linejoin:miter;stroke-opacity:1"
           d="m 8.511532,57.094564 h -27.0595 l 8.964249,-11.843197 h 35.874355 c 0,0 -7.819772,29.905273 -11.999778,44.783779 -0.772628,2.750127 -1.307553,5.58959 -2.417403,8.221773 -0.560334,1.328919 -1.206689,2.655511 -2.120055,3.771651 -1.338087,1.63515 -2.994645,3.04296 -4.801774,4.13771 -2.278736,1.38044 -4.841922,2.31085 -7.428259,2.95047 -3.218763,0.79603 -6.579518,0.88337 -9.890526,1.06035 -2.683865,0.14346 -5.382425,0.1943 -8.063089,0 -2.998071,-0.21731 -8.923551,-1.30043 -8.923551,-1.30043 l 4.657195,-13.174035 c 0,0 1.541068,0.151523 2.2798,0.367881 1.001443,0.293299 1.886062,0.903497 2.871283,1.247374 0.854448,0.298233 1.725229,0.584567 2.622486,0.702693 1.612907,0.212343 3.267568,0.212343 4.880475,0 1.835637,-0.241666 3.654626,-0.729063 5.365168,-1.437592 1.260337,-0.522049 2.579621,-1.081649 3.544242,-2.046269 0.958915,-0.958915 1.51554,-2.270258 2.034167,-3.523279 C 3.376856,80.199658 8.511532,57.094564 8.511532,57.094564 Z"
           id="path3178"
           inkscape:connector-curvature="0"
           sodipodi:nodetypes="ccccsssssssccsssssssc" />
        <path
           style="fill:#3200c8;fill-opacity:1;stroke:none;stroke-width:0.26458332px;stroke-linecap:butt;stroke-linejoin:miter;stroke-opacity:1"
           d="M 60.90586,109.33366 36.083985,73.664465 20.790243,77.762411 39.045194,109.38092 Z"
           id="path3186"
           inkscape:connector-curvature="0"
           sodipodi:nodetypes="ccccc" />
        <path
           style="fill:#640064;fill-opacity:1;stroke:none;stroke-width:0.26458332px;stroke-linecap:butt;stroke-linejoin:miter;stroke-opacity:1"
           d="M 11.688471,45.275187 0.773893,86.010167 h 26.119339 c 0,0 0.836138,-0.02552 1.251081,-0.0739 0.98918,-0.115332 1.964144,-0.331202 2.942975,-0.514697 1.10624,-0.207379 2.216479,-0.39979 3.310902,-0.66249 1.411779,-0.338877 2.803118,-0.759261 4.193546,-1.17719 1.307424,-0.39298 2.607604,-0.810742 3.900024,-1.250571 0.61687,-0.209932 1.23382,-0.421347 1.83917,-0.662491 1.1937,-0.475514 2.38746,-0.960249 3.53156,-1.545126 0.98871,-0.50544 1.95189,-1.066729 2.8696,-1.691887 0.82312,-0.560726 1.6192,-1.167772 2.35438,-1.839679 1.19111,-1.088598 2.32379,-2.255089 3.3109,-3.531569 0.67426,-0.871924 1.26889,-1.81184 1.76579,-2.795693 0.48665,-0.96355 0.8957,-1.974749 1.17719,-3.016872 0.33014,-1.222235 0.51845,-2.488133 0.58859,-3.752225 0.0911,-1.642429 0.0327,-3.304599 -0.22066,-4.929931 -0.18782,-1.205056 -0.43696,-2.428173 -0.95653,-3.531568 -0.52467,-1.114231 -1.31832,-2.093359 -2.13372,-3.016353 -0.74714,-0.845727 -1.58597,-1.62147 -2.50166,-2.280997 -0.97996,-0.705817 -2.06478,-1.264746 -3.16363,-1.765784 -0.85418,-0.389476 -1.75091,-0.682898 -2.64893,-0.95653 -1.25738,-0.383134 -2.5332,-0.716805 -3.82561,-0.956532 -1.19048,-0.22082 -2.40362,-0.294343 -3.60546,-0.441317 -0.93189,-0.113962 -1.858605,-0.284545 -2.795701,-0.34158 -8.779942,-0.534381 -26.388568,2e-6 -26.388568,2e-6 z m 12.482446,11.96671 c 0,0 6.434678,-0.166679 9.638686,0.07338 1.210467,0.09069 2.448652,0.145845 3.604949,0.515213 0.815043,0.260357 1.599899,0.659323 2.280998,1.177189 0.71841,0.546235 1.41822,1.188406 1.83968,1.986441 0.41118,0.778577 0.52352,1.696963 0.5886,2.575039 0.0709,0.95673 -0.0217,1.931102 -0.22066,2.869592 -0.16735,0.789276 -0.43671,1.565601 -0.80977,2.280996 -0.39014,0.748148 -0.89251,1.445806 -1.47123,2.059824 -0.562217,0.59651 -1.20878,1.125719 -1.913061,1.545124 -0.821877,0.489434 -1.745498,0.789438 -2.648935,1.10381 -0.93848,0.326566 -1.889354,0.643346 -2.869082,0.809252 -0.799528,0.135391 -1.61773,0.12272 -2.428268,0.147278 -3.235873,0.09804 -9.712073,0 -9.712073,0 z"
           id="path3182"
           inkscape:connector-curvature="0"
           sodipodi:nodetypes="cccssssssssssssssssssssssccsssssssssssscc" />
      </g>
      <g
         transform="translate(5.8208336,1.1720319)"
         id="g3234">
        <flowRoot
           xml:space="preserve"
           id="flowRoot3194"
           style="font-style:italic;font-variant:normal;font-weight:bold;font-stretch:normal;font-size:133.33332825px;line-height:1.25;font-family:sans-serif;-inkscape-font-specification:'sans-serif Bold Italic';letter-spacing:0px;word-spacing:0px;fill:#000000;fill-opacity:1;stroke:none"
           transform="matrix(0.26458333,0,0,0.26458333,-65.659091,-14.113637)"><flowRegion
             id="flowRegion3196"
             style="font-style:italic;font-variant:normal;font-weight:bold;font-stretch:normal;font-size:133.33332825px;font-family:sans-serif;-inkscape-font-specification:'sans-serif Bold Italic'"><rect
               id="rect3198"
               width="550.82318"
               height="190.17897"
               x="540.38654"
               y="206.41374"
               style="font-style:italic;font-variant:normal;font-weight:bold;font-stretch:normal;font-size:133.33332825px;font-family:sans-serif;-inkscape-font-specification:'sans-serif Bold Italic'" /></flowRegion><flowPara
             id="flowPara3200"
             style="fill:#ffffff;fill-opacity:1">Rutter</flowPara></flowRoot>        <flowRoot
           xml:space="preserve"
           id="flowRoot3194-1"
           style="font-style:italic;font-variant:normal;font-weight:bold;font-stretch:normal;font-size:133.33332825px;line-height:1.25;font-family:sans-serif;-inkscape-font-specification:'sans-serif Bold Italic';letter-spacing:0px;word-spacing:0px;fill:#000000;fill-opacity:1;stroke:none"
           transform="matrix(0.26458333,0,0,0.26458333,-36.677225,19.645031)"><flowRegion
             id="flowRegion3196-1"
             style="font-style:italic;font-variant:normal;font-weight:bold;font-stretch:normal;font-size:133.33332825px;font-family:sans-serif;-inkscape-font-specification:'sans-serif Bold Italic'"><rect
               id="rect3198-5"
               width="550.82318"
               height="190.17897"
               x="540.38654"
               y="206.41374"
               style="font-style:italic;font-variant:normal;font-weight:bold;font-stretch:normal;font-size:133.33332825px;font-family:sans-serif;-inkscape-font-specification:'sans-serif Bold Italic'" /></flowRegion><flowPara
             id="flowPara3200-2"
             style="fill:#ffffff;fill-opacity:1">Lab</flowPara></flowRoot>      </g>
    </g>
  </g>
</svg>
